HIERARCHY
ROOT root
{
	OFFSET 0.000000 0.000000 0.000000
	CHANNELS 6 Xposition Yposition Zposition Zrotation Yrotation Xrotation
	JOINT lhip
	{
		OFFSET 0.058581 -0.082280 -0.017664
		CHANNELS 3 Zrotation Yrotation Xrotation
		JOINT lknee
		{
			OFFSET 0.043451 -0.386469 0.008037
			CHANNELS 3 Zrotation Yrotation Xrotation
			JOINT lankle
			{
				OFFSET -0.014790 -0.426874 -0.037428
				CHANNELS 3 Zrotation Yrotation Xrotation
				JOINT ltoe
				{
					OFFSET 0.041054 -0.060286 0.122042
					CHANNELS 3 Zrotation Yrotation Xrotation
					End Site
					{
						OFFSET 0.000000 0.000000 0.000000
					}
				}
			}
		}
	}
	JOINT rhip
	{
		OFFSET -0.060310 -0.090513 -0.013543
		CHANNELS 3 Zrotation Yrotation Xrotation
		JOINT rknee
		{
			OFFSET -0.043257 -0.383688 -0.004843
			CHANNELS 3 Zrotation Yrotation Xrotation
			JOINT rankle
			{
				OFFSET 0.019056 -0.420046 -0.034562
				CHANNELS 3 Zrotation Yrotation Xrotation
				JOINT rtoe
				{
					OFFSET -0.034840 -0.062106 0.130323
					CHANNELS 3 Zrotation Yrotation Xrotation
					End Site
					{
						OFFSET 0.000000 0.000000 0.000000
					}
				}
			}
		}
	}
	JOINT lowerback
	{
		OFFSET 0.004439 0.124404 -0.038385
		CHANNELS 3 Zrotation Yrotation Xrotation
		JOINT upperback
		{
			OFFSET 0.004488 0.137956 0.026820
			CHANNELS 3 Zrotation Yrotation Xrotation
			JOINT chest
			{
				OFFSET -0.002265 0.056032 0.002855
				CHANNELS 3 Zrotation Yrotation Xrotation
				JOINT lowerneck
				{
					OFFSET -0.013390 0.211636 -0.033468
					CHANNELS 3 Zrotation Yrotation Xrotation
					JOINT upperneck
					{
						OFFSET 0.010113 0.088937 0.050410
						CHANNELS 3 Zrotation Yrotation Xrotation
						End Site
						{
							OFFSET 0.000000 0.000000 0.000000
						}
					}
				}
				JOINT lclavicle
				{
					OFFSET 0.071702 0.114000 -0.018898
					CHANNELS 3 Zrotation Yrotation Xrotation
					JOINT lshoulder
					{
						OFFSET 0.122921 0.045205 -0.019046
						CHANNELS 3 Zrotation Yrotation Xrotation
						JOINT lelbow
						{
							OFFSET 0.255332 -0.015649 -0.022946
							CHANNELS 3 Zrotation Yrotation Xrotation
							JOINT lwrist
							{
								OFFSET 0.265709 0.012698 -0.007375
								CHANNELS 3 Zrotation Yrotation Xrotation
								End Site
								{
									OFFSET 0.000000 0.000000 0.000000
								}
							}
						}
					}
				}
				JOINT rclavicle
				{
					OFFSET -0.082954 0.112472 -0.023707
					CHANNELS 3 Zrotation Yrotation Xrotation
					JOINT rshoulder
					{
						OFFSET -0.113228 0.046853 -0.008472
						CHANNELS 3 Zrotation Yrotation Xrotation
						JOINT relbow
						{
							OFFSET -0.260127 -0.014369 -0.031269
							CHANNELS 3 Zrotation Yrotation Xrotation
							JOINT rwrist
							{
								OFFSET -0.269108 0.006794 -0.006027
								CHANNELS 3 Zrotation Yrotation Xrotation
								End Site
								{
									OFFSET 0.000000 0.000000 0.000000
								}
							}
						}
					}
				}
			}
		}
	}
}
MOTION
Frames: 15
Frame Time: 0.033333
1.131431 0.166936 1.125770 -86.368236 3.354982 87.449597 0.829060 0.202126 8.033196 -2.525550 -13.983948 0.456596 6.901072 9.355388 -18.219330 0.000000 -0.000000 0.000000 4.093629 -2.017395 3.963313 4.061208 3.089330 6.191846 1.088460 -3.928975 -12.908308 0.000000 -0.000000 0.000000 -3.388731 1.402105 2.184766 2.035914 -3.069340 3.526766 2.269475 -1.361584 3.737576 4.454851 1.520147 1.964334 2.204941 -1.902361 5.852286 -24.036269 4.054759 4.346810 -64.341919 -6.041501 8.435161 9.933834 -24.591769 5.298557 -2.715430 -2.112724 -10.875072 22.277539 -1.318062 3.636621 62.799441 3.636721 10.561902 -13.418053 23.488909 -2.405337 8.156841 0.771757 -12.012390 
1.132067 0.166003 1.125779 -86.435764 3.401927 87.496685 0.941155 0.300368 7.903110 -2.785426 -13.970788 0.532512 6.943834 9.338520 -18.192929 0.000000 -0.000000 0.000000 4.020455 -1.949563 3.835259 4.196308 3.122983 6.245470 1.128440 -3.964118 -12.937971 0.000000 -0.000000 0.000000 -3.370569 1.370931 2.126770 2.037900 -3.074303 3.559895 2.208246 -1.380912 3.783733 4.723854 1.364799 1.868205 2.281749 -2.158794 6.059319 -23.948049 4.109088 4.491142 -64.268105 -5.882839 8.460676 9.824395 -23.503321 5.584479 -3.149339 -2.173386 -10.777766 22.171482 -1.410284 3.638995 62.954653 3.583642 10.532966 -13.489456 22.574419 -2.502013 8.680246 0.534448 -12.474789 
1.132731 0.165107 1.125826 -86.524696 3.425313 87.480669 0.947334 0.383727 7.922062 -2.847701 -14.024943 0.474169 7.024072 9.342870 -18.102188 0.000000 -0.000000 0.000000 3.967269 -1.796267 3.731943 4.220428 2.973355 6.371426 1.160210 -3.919817 -12.938553 0.000000 -0.000000 0.000000 -3.401250 1.303444 2.267574 2.036125 -3.053970 3.445960 2.238168 -1.390377 3.756369 4.699694 1.517755 2.317761 2.262401 -1.831879 5.894130 -23.916117 4.217369 4.526061 -64.257066 -5.737911 8.297078 9.786525 -22.508622 5.715493 -3.636542 -2.285248 -10.513577 21.969876 -1.534905 3.753263 63.097230 3.457481 10.478757 -13.489268 22.049863 -2.391929 8.924141 0.557982 -12.567574 
1.134257 0.164087 1.125764 -86.669271 3.525278 87.652786 1.007119 0.268674 7.644918 -2.924831 -13.904559 0.488758 6.967047 9.490597 -18.100100 0.000000 -0.000000 0.000000 4.050104 -1.369420 3.272464 4.258549 2.981689 6.661718 1.103646 -4.219173 -12.922211 0.000000 -0.000000 0.000000 -3.348169 1.222707 2.246024 2.066004 -2.963134 3.235166 2.202864 -1.459219 3.929128 4.848545 1.475272 1.924368 2.133781 -2.019166 6.024577 -23.790135 4.448923 4.619461 -64.165219 -5.409534 8.306916 9.557455 -21.726747 6.151811 -4.179888 -2.543194 -10.625558 22.044659 -1.834556 3.628097 62.992496 3.395734 10.528211 -13.526831 21.447231 -2.257247 8.944334 0.485949 -12.512511 
1.133819 0.164067 1.125699 -86.388790 3.659204 87.545776 1.280836 0.421919 7.814933 -3.003045 -14.137656 0.394277 6.808997 9.286266 -18.159225 0.000000 -0.000000 0.000000 4.191663 -1.652179 3.572640 4.242390 2.931447 6.392582 1.102694 -4.149948 -12.803171 0.000000 -0.000000 0.000000 -3.382376 1.056359 2.224097 2.119370 -3.131687 3.369722 2.276802 -1.525251 3.852006 4.805077 1.379367 2.561464 2.220927 -1.933966 6.000724 -23.637167 4.438529 4.829231 -64.406682 -5.329441 8.057100 9.780073 -20.969151 6.034476 -4.083650 -2.097738 -10.531896 21.921283 -1.888844 3.742047 63.139390 3.268443 10.335125 -13.513032 21.150438 -2.081171 8.986455 0.454523 -12.382798 
1.134405 0.163505 1.125848 -86.407299 3.680028 87.497247 1.290246 0.567482 7.893136 -2.972182 -14.189745 0.273993 6.665259 9.180356 -18.086037 0.000000 -0.000000 0.000000 4.212651 -1.763482 3.496382 4.157992 3.060259 6.555188 1.120408 -4.192227 -12.836872 0.000000 -0.000000 0.000000 -3.470663 1.065528 2.243575 2.125606 -3.145544 3.512874 2.312609 -1.590453 3.986204 4.771014 1.765108 1.658650 2.076394 -1.880026 5.931724 -23.744434 4.511907 4.685409 -64.207024 -5.195134 7.986350 9.798109 -20.447269 5.929294 -3.908338 -2.042970 -10.295368 22.173649 -1.933922 3.526238 62.873612 3.251477 10.253549 -13.453710 20.536448 -2.386949 8.766270 0.499935 -12.264893 
1.135252 0.163095 1.125951 -86.332980 3.740927 87.408113 1.361176 0.714041 7.902004 -2.988548 -14.379812 0.313413 6.731355 9.068315 -18.029630 0.000000 -0.000000 0.000000 4.214581 -2.016042 3.546629 4.144645 3.070738 6.480894 1.088832 -4.010023 -12.706026 0.000000 -0.000000 0.000000 -3.495163 1.059384 2.426948 2.167059 -3.329526 3.494376 2.397853 -1.530881 3.850787 4.956852 1.023897 2.735073 2.332554 -2.182707 5.851058 -23.828382 4.459662 4.855107 -64.111322 -5.191857 7.759294 9.825400 -19.832764 5.690140 -4.065959 -1.721902 -10.119864 22.002385 -1.887850 3.866298 63.040761 3.025811 10.023820 -13.554975 20.632525 -2.438417 9.171892 0.284239 -12.427091 
1.136318 0.162911 1.126051 -86.464325 3.771380 87.416906 1.415968 0.773715 7.825241 -3.069363 -14.332238 0.305169 6.709850 9.101890 -18.053031 0.000000 -0.000000 0.000000 4.213009 -2.031435 3.416710 4.195401 3.126008 6.543652 1.056871 -4.012795 -12.670612 0.000000 -0.000000 0.000000 -3.535643 1.112239 2.530451 2.146933 -3.277404 3.368640 2.391210 -1.559720 3.881889 5.015624 1.086779 2.667977 2.433663 -2.137112 5.860909 -23.761043 4.540373 4.963367 -64.005625 -5.133799 7.689078 9.821929 -19.819844 5.657133 -4.042467 -1.662853 -10.241311 21.938839 -1.999213 3.880290 63.220773 2.878519 10.029413 -13.458403 20.518321 -2.299021 9.061720 -0.009839 -12.498155 
1.137404 0.162706 1.126358 -86.539245 3.832404 87.393102 1.446183 0.811350 7.762811 -3.077127 -14.317336 0.346701 6.675836 9.090269 -17.998834 0.000000 -0.000000 0.000000 4.291292 -2.111597 3.334897 4.123591 3.273782 6.532140 1.195139 -3.988416 -12.574132 0.000000 -0.000000 0.000000 -3.545636 1.081654 2.600707 2.124070 -3.203228 3.354549 2.391712 -1.485434 4.002157 4.852554 1.564558 2.071006 2.300615 -1.962882 5.857178 -23.919599 4.626044 4.708683 -63.697083 -5.135613 7.685845 9.749150 -19.742436 5.700423 -3.906329 -1.698185 -9.750480 22.235135 -2.129390 3.740391 63.005206 2.882556 10.073226 -13.387398 20.343963 -2.306858 8.991538 0.133216 -12.089486 
1.138352 0.162772 1.126567 -86.623951 3.850361 87.209769 1.467273 0.975311 7.933621 -3.044355 -14.409585 0.273440 6.672366 9.043316 -18.005022 0.000000 -0.000000 0.000000 4.341341 -2.204654 3.370016 4.084770 3.368520 6.695396 1.252114 -3.924386 -12.688834 0.000000 -0.000000 0.000000 -3.674891 1.125162 2.840785 2.109651 -3.136818 3.361485 2.400570 -1.448561 3.922243 5.011865 1.567990 1.974486 2.291790 -1.988926 5.906134 -23.948624 4.665099 4.583814 -63.436725 -5.147674 7.634364 9.765573 -20.030383 5.355267 -3.606028 -1.959062 -9.854592 22.443040 -2.155370 3.734350 62.957953 2.824764 10.005246 -13.291856 20.102915 -2.622014 8.914929 0.242627 -12.195165 
1.139628 0.162782 1.126668 -86.686844 3.805275 87.240018 1.303592 0.650059 7.807803 -3.015815 -14.232819 0.358801 6.810377 9.314395 -18.068546 0.000000 -0.000000 0.000000 4.368759 -2.007957 3.115456 4.009496 3.355853 6.927628 1.212233 -4.066586 -12.690255 0.000000 -0.000000 0.000000 -3.816466 1.209890 2.912251 2.089932 -3.096947 3.174209 2.417010 -1.421873 3.986797 5.076886 1.606880 2.137462 2.430043 -2.056506 6.086029 -23.885860 4.682171 4.546789 -63.387951 -5.349148 7.675415 9.797662 -20.359574 5.142261 -3.546504 -1.893177 -10.054099 22.519871 -2.147276 3.765539 63.044350 2.730102 10.224991 -13.321432 20.332800 -2.573337 8.861867 0.113834 -12.174017 
1.140349 0.162763 1.126758 -86.564847 3.793878 86.976283 1.232249 0.600484 7.939784 -2.968289 -14.269297 0.597475 6.876389 9.277250 -18.241511 0.000000 -0.000000 0.000000 4.352319 -1.828883 3.368149 4.043665 3.105597 6.935623 1.153343 -4.183513 -12.813456 0.000000 -0.000000 0.000000 -3.868744 1.173278 3.322314 2.103277 -3.129341 3.119242 2.447024 -1.454292 3.779293 5.253644 1.025687 2.698972 2.313273 -2.267169 6.419223 -23.867235 4.553490 4.735383 -63.520802 -5.562929 7.640501 9.957375 -20.592862 5.088676 -3.381876 -1.958896 -10.230722 22.490118 -2.039047 3.882886 63.066719 2.748159 10.114287 -13.317239 20.281346 -2.503514 8.735519 0.416948 -11.899786 
1.141717 0.162759 1.126847 -86.409771 3.819015 87.105926 1.207976 0.492249 7.487711 -3.017662 -14.231099 0.999701 6.962066 9.330180 -18.314017 0.000000 -0.000000 0.000000 4.448373 -1.783347 3.040660 3.956728 3.034631 7.148225 1.162218 -4.282115 -12.862390 0.000000 -0.000000 0.000000 -3.798917 1.138162 3.310672 2.078415 -3.095884 2.978481 2.354499 -1.538025 3.869913 5.265871 1.158446 2.579781 2.346702 -2.200689 6.585878 -23.973080 4.519789 4.686355 -63.468984 -5.820549 7.715187 10.107482 -21.171546 4.732643 -3.023584 -1.940418 -10.227788 22.514943 -2.063959 3.754069 63.167215 2.769811 10.231915 -13.361411 20.428679 -2.634746 8.643321 0.385488 -11.986771 
1.142484 0.162891 1.126818 -86.336800 3.838284 87.010116 1.184139 0.315302 7.423044 -3.027357 -14.233627 1.247843 7.123539 9.470823 -18.439288 0.000000 -0.000000 0.000000 4.551667 -1.716864 2.969705 3.872308 3.002803 7.375776 1.067055 -4.329600 -12.997139 0.000000 -0.000000 0.000000 -3.849887 1.184562 3.306579 2.133786 -3.126270 3.043174 2.390453 -1.512664 3.831051 5.333891 0.686867 3.245701 2.431414 -2.382338 6.837021 -23.928449 4.352822 4.800955 -63.614467 -6.073957 7.790430 10.242256 -21.771866 4.376593 -3.022524 -1.875538 -10.701675 22.261439 -1.889318 3.894393 63.371513 2.735477 10.263649 -13.436958 20.867415 -2.682388 9.026373 0.215836 -12.404918 
1.143848 0.162843 1.126893 -86.056985 3.815454 87.046361 1.062890 0.000898 6.946914 -3.094101 -14.327253 1.954998 7.195371 9.562765 -18.584875 0.000000 -0.000000 0.000000 4.516690 -1.675933 2.842957 3.930133 2.867050 7.383174 1.137087 -4.457510 -12.961861 0.000000 -0.000000 0.000000 -3.839135 1.173832 3.448919 2.098018 -3.168114 2.809076 2.354799 -1.563970 3.970745 5.294204 0.886584 3.234269 2.425351 -2.309414 7.261475 -23.922344 4.214879 4.686657 -63.636945 -6.327284 8.032094 10.184642 -22.360158 4.492009 -3.014038 -1.920535 -10.711971 22.305646 -1.905891 3.773569 63.331641 2.816793 10.393171 -13.497312 21.046912 -2.708384 9.040626 0.250348 -12.384588 
